<?xml version="1.0" standalone="no"?>
<!DOCTYPE svg PUBLIC "-//W3C//DTD SVG 20010904//EN"
 "http://www.w3.org/TR/2001/REC-SVG-20010904/DTD/svg10.dtd">
<svg version="1.0" xmlns="http://www.w3.org/2000/svg"
 width="316.000000pt" height="316.000000pt" viewBox="0 0 316.000000 316.000000"
 preserveAspectRatio="xMidYMid meet">
<metadata>
Created by potrace 1.11, written by Peter Selinger 2001-2013
</metadata>
<g transform="translate(0.000000,316.000000) scale(0.100000,-0.100000)"
fill="#000000" stroke="none">
<path d="M0 1580 l0 -1580 1580 0 1580 0 0 1580 0 1580 -1580 0 -1580 0 0
-1580z m2742 688 c28 -31 30 -36 25 -93 -5 -74 -17 -98 -102 -209 -65 -85
-104 -155 -105 -187 0 -23 38 -53 93 -73 58 -22 74 -46 57 -87 -11 -27 -16
-29 -64 -29 -81 0 -144 -26 -202 -85 -61 -61 -86 -120 -113 -276 -26 -146 -49
-192 -115 -229 -45 -26 -61 -30 -134 -30 -85 0 -136 14 -161 43 -11 14 -11 22
-1 47 7 17 22 37 33 45 18 12 25 11 62 -10 54 -32 87 -32 125 3 26 23 35 45
60 146 50 203 130 337 236 397 l55 32 -28 29 c-21 22 -27 38 -27 68 2 46 26
88 116 198 38 46 75 97 84 114 21 40 21 85 1 106 -16 15 -23 15 -104 -5 -53
-13 -92 -18 -97 -13 -11 11 9 86 24 95 17 10 152 33 203 34 43 1 53 -3 79 -31z
m-1437 -8 c46 -23 47 -85 1 -115 -22 -15 -27 -14 -71 10 -56 29 -75 31 -115
10 -32 -17 -35 -23 -48 -136 -18 -144 -87 -249 -199 -301 -27 -13 -49 -23 -51
-24 -2 -1 8 -14 22 -29 53 -57 23 -143 -122 -363 -85 -129 -109 -183 -98 -226
5 -22 12 -26 44 -26 20 0 61 7 90 14 47 13 54 13 59 0 15 -41 -113 -114 -213
-122 -58 -4 -64 -3 -87 22 -66 71 -39 167 111 396 137 209 144 256 38 276 -67
12 -97 64 -60 105 12 14 26 16 68 12 43 -4 61 -1 103 21 63 31 120 87 144 141
10 22 21 80 25 130 10 129 41 181 129 213 42 16 193 10 230 -8z m785 -131 c0
-12 -54 -108 -119 -213 -123 -197 -241 -403 -241 -421 0 -5 33 23 73 62 117
115 192 152 248 123 10 -6 19 -21 19 -34 0 -13 -36 -97 -79 -187 -86 -178 -99
-213 -81 -224 22 -14 61 6 124 65 67 63 80 70 90 44 14 -37 5 -66 -36 -110
-76 -83 -168 -119 -240 -95 -80 26 -78 108 8 279 32 64 60 120 62 125 25 51
-174 -154 -316 -326 -58 -70 -68 -78 -96 -75 -28 3 -31 6 -28 32 l3 29 -28
-18 c-143 -93 -246 -193 -345 -336 -67 -97 -92 -113 -137 -88 -39 22 -48 59
-27 116 14 37 41 70 116 143 81 79 135 148 195 250 5 8 -11 -1 -36 -21 -127
-104 -203 -125 -256 -73 -23 23 -25 31 -20 81 3 30 18 80 33 110 73 150 307
319 433 314 46 -2 75 -1 131 2 35 1 45 -2 48 -15 2 -9 -28 -63 -66 -120 -85
-127 -224 -359 -219 -364 2 -2 30 17 63 42 32 26 89 66 126 90 64 42 68 47
122 156 30 62 104 201 164 308 185 332 213 370 278 370 28 0 34 -4 34 -21z"/>
<path d="M1309 1563 c-87 -43 -180 -131 -227 -213 -33 -58 -41 -100 -19 -100
31 0 315 272 348 333 16 28 -20 21 -102 -20z"/>
</g>
</svg>
